<?xml version="1.0" encoding="utf-8"?>
<!-- Generator: Adobe Illustrator 15.0.0, SVG Export Plug-In . SVG Version: 6.00 Build 0)  -->
<!DOCTYPE svg PUBLIC "-//W3C//DTD SVG 1.1//EN" "http://www.w3.org/Graphics/SVG/1.1/DTD/svg11.dtd">
<svg version="1.1" xmlns="http://www.w3.org/2000/svg" xmlns:xlink="http://www.w3.org/1999/xlink" x="0px" y="0px" width="14px"
	 height="14px" viewBox="0 0 14 14" enable-background="new 0 0 14 14" xml:space="preserve">
<g id="Layer_1" display="none">
	<g display="inline">
		<circle fill="#FFFFFF" cx="7" cy="7" r="6"/>
		<g>
			<defs>
				<circle id="SVGID_1_" cx="7" cy="7" r="5.229"/>
			</defs>
			<clipPath id="SVGID_2_">
				<use xlink:href="#SVGID_1_"  overflow="visible"/>
			</clipPath>
			<ellipse clip-path="url(#SVGID_2_)" fill="#4F3973" cx="7.001" cy="5.467" rx="1.894" ry="2.057"/>
			<path clip-path="url(#SVGID_2_)" fill="#4F3973" d="M3.143,10.586v0.73L7,13.18l3.862-1.863v-0.58
				c0-1.432-1.729-2.592-3.862-2.592c-2.02,0-3.68,1.041-3.848,2.367c-0.01,0.074-0.014,0.148-0.014,0.225"/>
		</g>
	</g>
</g>
<g id="Layer_2" display="none">
	<g display="inline">
		<circle fill="#A08DCE" cx="7" cy="7" r="6"/>
		<g>
			<defs>
				<circle id="SVGID_3_" cx="7" cy="7" r="5.229"/>
			</defs>
			<clipPath id="SVGID_4_">
				<use xlink:href="#SVGID_3_"  overflow="visible"/>
			</clipPath>
			<ellipse clip-path="url(#SVGID_4_)" fill="#4F3973" cx="7" cy="5.467" rx="1.894" ry="2.057"/>
			<path clip-path="url(#SVGID_4_)" fill="#4F3973" d="M3.144,10.586v0.73L7,13.18l3.861-1.863v-0.58
				c0-1.432-1.729-2.592-3.861-2.592c-2.02,0-3.678,1.041-3.848,2.367c-0.009,0.074-0.014,0.148-0.014,0.225"/>
		</g>
	</g>
</g>
<g id="Layer_3" display="none">
	<g display="inline">
		<g>
			<path fill="#FFFFFF" d="M11.713,4.97c0,1.046-0.786,1.899-1.749,1.899c-0.967,0-1.75-0.854-1.75-1.899
				c0-1.047,0.783-1.902,1.75-1.902C10.927,3.067,11.713,3.923,11.713,4.97z"/>
		</g>
		<g>
			<path fill="#FFFFFF" d="M9.88,7.779c-0.373,0-0.727,0.047-1.062,0.116c0.592,0.56,0.951,1.249,0.951,2.015v1.918H13.2V9.877
				C13.2,8.719,11.713,7.779,9.88,7.779z"/>
			<path fill="#FFFFFF" d="M5.034,7.568c-1.934,0-3.57,0.949-3.723,2.162l-0.007,0.1v1.979l7.464,0.002v-1.9
				C8.769,8.641,7.06,7.568,5.034,7.568z"/>
			<polygon fill="#FFFFFF" points="0.8,9.91 0.8,9.908 0.8,9.908 			"/>
		</g>
		<g>
			<path fill="#FFFFFF" d="M7.111,4.428c0,1.24-0.932,2.255-2.077,2.255c-1.146,0-2.077-1.015-2.077-2.255
				c0-1.247,0.931-2.256,2.077-2.256C6.18,2.172,7.111,3.181,7.111,4.428z"/>
		</g>
	</g>
</g>
<g id="Layer_4" display="none">
	<g display="inline">
		<g>
			<g>
				<path fill="#A08DCE" d="M11.684,4.868c0,1.098-0.825,1.994-1.837,1.994c-1.016,0-1.838-0.896-1.838-1.994
					c0-1.1,0.822-1.998,1.838-1.998C10.858,2.87,11.684,3.769,11.684,4.868z"/>
			</g>
			<g>
				<path fill="#A08DCE" d="M9.76,7.819c-0.392,0-0.765,0.049-1.116,0.121c0.621,0.587,0.999,1.312,0.999,2.114v2.014h3.603V10.02
					C13.245,8.805,11.684,7.819,9.76,7.819z"/>
				<path fill="#A08DCE" d="M4.671,7.597c-2.029,0-3.748,0.995-3.908,2.269L0.755,9.971v2.076l7.838,0.004v-1.996
					C8.593,8.723,6.798,7.597,4.671,7.597z"/>
			</g>
			<g>
				<path fill="#A08DCE" d="M6.853,4.3c0,1.303-0.979,2.367-2.182,2.367S2.49,5.603,2.49,4.3c0-1.311,0.978-2.369,2.181-2.369
					S6.853,2.989,6.853,4.3z"/>
			</g>
		</g>
	</g>
</g>
<g id="Layer_5" display="none">
	<g display="inline">
		<g>
			<path fill="#A08DCE" d="M12.19,4.485l-0.154,0.749c-0.039,0.193-0.127,0.335-0.266,0.424c-0.139,0.088-0.355,0.133-0.652,0.133
				H9.978L9.427,8.269h1.537c0.212,0,0.367,0.057,0.463,0.166c0.098,0.111,0.12,0.303,0.068,0.574l-0.097,0.574H9.205l-0.593,2.68
				H7.665c-0.096,0-0.187-0.021-0.275-0.059c-0.086-0.039-0.158-0.094-0.217-0.162c-0.057-0.068-0.098-0.15-0.121-0.242
				c-0.021-0.092-0.02-0.189,0.006-0.295l0.436-1.922H5.329l-0.437,2.014c-0.052,0.238-0.167,0.408-0.343,0.51
				c-0.178,0.104-0.379,0.156-0.605,0.156H3.027l0.591-2.68H2.372c-0.213,0-0.368-0.055-0.465-0.172
				C1.811,9.3,1.785,9.108,1.831,8.843l0.105-0.574h1.904l0.551-2.478H2.245l0.154-0.748c0.039-0.194,0.129-0.336,0.268-0.424
				c0.139-0.09,0.355-0.134,0.65-0.134h1.297l0.494-2.124c0.045-0.195,0.15-0.346,0.314-0.459c0.164-0.109,0.358-0.165,0.584-0.165
				h0.938l-0.63,2.748h2.175l0.63-2.748h0.919c0.225,0,0.4,0.061,0.526,0.185c0.126,0.121,0.169,0.272,0.131,0.456L10.2,4.485H12.19
				z M8.276,5.791H6.103L5.541,8.269h2.175L8.276,5.791z"/>
		</g>
	</g>
</g>
<g id="Layer_6" display="none">
	<g display="inline">
		<g>
			<path fill="#FFFFFF" d="M12.19,4.485l-0.154,0.749c-0.039,0.193-0.127,0.335-0.266,0.424c-0.139,0.088-0.355,0.133-0.652,0.133
				H9.978L9.427,8.269h1.537c0.212,0,0.367,0.057,0.463,0.167c0.098,0.111,0.12,0.303,0.068,0.574l-0.097,0.574H9.205l-0.593,2.679
				H7.665c-0.096,0-0.187-0.021-0.275-0.058c-0.086-0.039-0.158-0.094-0.217-0.162c-0.057-0.068-0.098-0.151-0.121-0.242
				c-0.021-0.093-0.02-0.19,0.006-0.295l0.436-1.922H5.329l-0.437,2.014c-0.052,0.238-0.167,0.408-0.343,0.51
				c-0.178,0.104-0.379,0.155-0.605,0.155H3.027l0.591-2.679H2.372c-0.213,0-0.368-0.056-0.465-0.172
				C1.811,9.3,1.785,9.109,1.831,8.843l0.105-0.574h1.904l0.551-2.478H2.245l0.154-0.748c0.039-0.194,0.129-0.336,0.268-0.424
				c0.139-0.09,0.355-0.134,0.65-0.134h1.297l0.494-2.124c0.045-0.195,0.15-0.346,0.314-0.459c0.164-0.109,0.358-0.165,0.584-0.165
				h0.938l-0.63,2.748h2.175l0.63-2.748h0.919c0.225,0,0.4,0.061,0.526,0.185c0.126,0.121,0.169,0.272,0.131,0.456L10.2,4.485H12.19
				z M8.276,5.791H6.103L5.541,8.269h2.175L8.276,5.791z"/>
		</g>
	</g>
</g>
<g id="Layer_7" display="none">
	<g display="inline" opacity="0.5">
		<g>
			<g>
				
					<circle fill="none" stroke="#60768B" stroke-width="1.4004" stroke-linecap="round" stroke-linejoin="round" stroke-miterlimit="10" cx="6.119" cy="6.119" r="4.365"/>
				
					<line fill="none" stroke="#60768B" stroke-width="1.4004" stroke-linecap="round" stroke-linejoin="round" stroke-miterlimit="10" x1="12.246" y1="12.246" x2="9.27" y2="9.271"/>
			</g>
		</g>
	</g>
</g>
<g id="Layer_8">
	<g>
		<g>
			<path fill="#60768B" d="M12.19,4.485l-0.154,0.75c-0.04,0.193-0.128,0.334-0.267,0.424c-0.138,0.088-0.355,0.133-0.651,0.133
				H9.977l-0.55,2.477h1.536c0.213,0,0.367,0.057,0.464,0.168s0.12,0.303,0.067,0.574l-0.096,0.574H9.205l-0.593,2.678H7.666
				c-0.097,0-0.187-0.02-0.275-0.057c-0.087-0.039-0.159-0.094-0.217-0.162s-0.099-0.152-0.121-0.242
				c-0.022-0.094-0.021-0.191,0.005-0.295l0.437-1.922H5.329l-0.436,2.014c-0.052,0.238-0.167,0.408-0.344,0.51
				c-0.178,0.104-0.379,0.154-0.604,0.154H3.028l0.59-2.678H2.372c-0.213,0-0.367-0.057-0.464-0.172
				C1.811,9.3,1.786,9.11,1.831,8.843l0.105-0.574H3.84l0.551-2.477H2.245L2.4,5.044C2.439,4.849,2.528,4.708,2.667,4.62
				c0.139-0.09,0.355-0.135,0.651-0.135h1.296l0.494-2.123c0.045-0.195,0.15-0.346,0.314-0.459c0.164-0.109,0.359-0.166,0.584-0.166
				h0.938l-0.63,2.748h2.173l0.631-2.748h0.918c0.225,0,0.401,0.061,0.527,0.186c0.125,0.121,0.168,0.271,0.131,0.455l-0.496,2.107
				H12.19z M8.276,5.792H6.102L5.542,8.269h2.174L8.276,5.792z"/>
		</g>
	</g>
</g>
</svg>
