<?xml version="1.0" encoding="utf-8"?>
<!-- Generator: Adobe Illustrator 15.0.0, SVG Export Plug-In . SVG Version: 6.00 Build 0)  -->
<!DOCTYPE svg PUBLIC "-//W3C//DTD SVG 1.1//EN" "http://www.w3.org/Graphics/SVG/1.1/DTD/svg11.dtd">
<svg version="1.1" id="Layer_1" xmlns="http://www.w3.org/2000/svg" xmlns:xlink="http://www.w3.org/1999/xlink" x="0px" y="0px"
	 width="624px" height="76px" viewBox="0 0 624 76" enable-background="new 0 0 624 76" xml:space="preserve">
<g>
	<g>
		<g>
			<g>
				<text transform="matrix(1 0 0 1 315.8965 32.875)"><tspan x="0" y="0" fill="#C7B0FF" font-family="'Exo-Regular'" font-size="13.3585">GROUP</tspan><tspan x="0" y="20.552" fill="#C7B0FF" font-family="'Exo-Regular'" font-size="13.3585">MESSAGE</tspan></text>
			</g>
			<g>
				
					<image overflow="visible" opacity="0.15" width="57" height="57" xlink:href="D2CB2909.png"  transform="matrix(1 0 0 1 249.5 11.5)">
				</image>
				<g>
					<path fill="#80ACF7" d="M302.597,53c0,5.5-4.5,10-10,10h-30c-5.5,0-10-4.5-10-10V23c0-5.5,4.5-10,10-10h30c5.5,0,10,4.5,10,10
						V53z"/>
				</g>
			</g>
			<g>
				<path fill="none" stroke="#FFFFFF" stroke-linecap="round" stroke-linejoin="round" stroke-miterlimit="10" d="M281.124,36.208
					c1.891-1.123,3.155-3.183,3.155-5.541c0-3.562-2.882-6.452-6.446-6.452c-3.56,0-6.449,2.89-6.449,6.452
					c0,2.358,1.27,4.415,3.159,5.541c-4.669,1.41-8.065,5.74-8.065,10.869v1.277c0,0,9.602,3.555,22.716,0v-1.277
					C289.193,41.95,285.793,37.618,281.124,36.208z"/>
				<path fill="none" stroke="#FFFFFF" stroke-linecap="round" stroke-linejoin="round" stroke-miterlimit="10" d="M289.109,46.601
					c1.454-0.201,2.986-0.506,4.578-0.938v-1.047c0-4.197-2.785-7.745-6.607-8.9c1.547-0.922,2.584-2.607,2.584-4.541
					c0-2.917-2.359-5.284-5.28-5.284c-0.659,0-1.289,0.122-1.87,0.343"/>
				<path fill="none" stroke="#FFFFFF" stroke-linecap="round" stroke-linejoin="round" stroke-miterlimit="10" d="M273.023,26.378
					c-0.674-0.312-1.425-0.487-2.214-0.487c-2.918,0-5.282,2.367-5.282,5.284c0,1.934,1.04,3.619,2.587,4.541
					c-3.822,1.155-6.607,4.703-6.607,8.9v1.047c0,0,1.86,0.691,5.007,1.061"/>
			</g>
		</g>
		<g>
			<g>
				<text transform="matrix(1 0 0 1 129.8359 32.875)"><tspan x="0" y="0" fill="#C7B0FF" font-family="'Exo-Regular'" font-size="13.3585">OPEN CHAT</tspan><tspan x="0" y="20.552" fill="#C7B0FF" font-family="'Exo-Regular'" font-size="13.3585">ROOM</tspan></text>
			</g>
			<g>
				
					<image overflow="visible" opacity="0.15" width="57" height="57" xlink:href="D2CB290B.png"  transform="matrix(1 0 0 1 63.5 11.5)">
				</image>
				<g>
					<path fill="#41BCD9" d="M117.003,52.998c0,5.5-4.5,10-10,10h-30c-5.5,0-10-4.5-10-10V23c0-5.5,4.5-10,10-10h30
						c5.5,0,10,4.5,10,10V52.998z"/>
				</g>
			</g>
			<g>
				<path fill="none" stroke="#FFFFFF" stroke-linecap="round" stroke-linejoin="round" stroke-miterlimit="10" d="M97.168,30.341
					c5.739,0,10.394,4.363,10.394,9.745c0,3.152-1.599,5.947-4.077,7.73v4.722l-3.489-3.079c-0.903,0.237-1.845,0.372-2.827,0.372
					c-5.739,0-10.394-4.36-10.394-9.745C86.774,34.704,91.429,30.341,97.168,30.341z"/>
				<path fill="#41BCD9" stroke="#FFFFFF" stroke-linecap="round" stroke-linejoin="round" stroke-miterlimit="10" d="
					M88.065,23.458c-6.416,0-11.62,4.881-11.62,10.895c0,3.526,1.789,6.65,4.56,8.643v5.279l3.901-3.443
					c1.008,0.268,2.063,0.417,3.159,0.417c6.42,0,11.623-4.878,11.623-10.896C99.688,28.339,94.485,23.458,88.065,23.458z"/>
				<path fill="#FFFFFF" d="M91.666,34.577c0,0.709,0.579,1.288,1.293,1.288c0.713,0,1.29-0.579,1.29-1.288
					c0-0.715-0.577-1.293-1.29-1.293C92.245,33.284,91.666,33.862,91.666,34.577z"/>
				<path fill="#FFFFFF" d="M86.774,34.577c0,0.709,0.578,1.288,1.294,1.288c0.713,0,1.291-0.579,1.291-1.288
					c0-0.715-0.578-1.293-1.291-1.293C87.353,33.284,86.774,33.862,86.774,34.577z"/>
				<path fill="#FFFFFF" d="M81.885,34.577c0,0.709,0.576,1.288,1.288,1.288c0.716,0,1.296-0.579,1.296-1.288
					c0-0.715-0.58-1.293-1.296-1.293C82.461,33.284,81.885,33.862,81.885,34.577z"/>
			</g>
		</g>
		<g>
			<g>
				<text transform="matrix(1 0 0 1 487.2266 32.877)"><tspan x="0" y="0" fill="#C7B0FF" font-family="'Exo-Regular'" font-size="13.3585">1-ON-1</tspan><tspan x="0" y="20.552" fill="#C7B0FF" font-family="'Exo-Regular'" font-size="13.3585">MESSAGING</tspan></text>
			</g>
			<g>
				
					<image overflow="visible" opacity="0.15" width="57" height="57" xlink:href="D2CB290E.png"  transform="matrix(1 0 0 1 421.5 11.5)">
				</image>
				<g>
					<path fill="#9999FF" d="M474.637,53c0,5.5-4.5,10-10,10h-29.998c-5.5,0-10-4.5-10-10V23c0-5.5,4.5-10,10-10h29.998
						c5.5,0,10,4.5,10,10V53z"/>
				</g>
			</g>
			
				<path fill="none" stroke="#FFFFFF" stroke-width="1.5" stroke-linecap="round" stroke-linejoin="round" stroke-miterlimit="10" d="
				M452.928,36.209c1.888-1.124,3.154-3.183,3.154-5.54c0-3.562-2.881-6.454-6.448-6.454c-3.559,0-6.45,2.892-6.45,6.454
				c0,2.357,1.271,4.414,3.161,5.54c-4.668,1.411-8.063,5.741-8.063,10.868v1.277c0,0,9.601,3.556,22.714,0v-1.277
				C460.995,41.954,457.595,37.62,452.928,36.209z"/>
		</g>
	</g>
	<g opacity="0.2">
		
			<image overflow="visible" opacity="0.15" width="57" height="57" xlink:href="D2CB290F.png"  transform="matrix(1 0 0 1 249.5 11.5)">
		</image>
		<g>
			<linearGradient id="SVGID_1_" gradientUnits="userSpaceOnUse" x1="277.5967" y1="63" x2="277.5967" y2="13.0005">
				<stop  offset="0" style="stop-color:#000000"/>
				<stop  offset="1" style="stop-color:#FFFFFF"/>
			</linearGradient>
			<path fill="url(#SVGID_1_)" d="M302.597,53c0,5.5-4.5,10-10,10h-30c-5.5,0-10-4.5-10-10V23c0-5.5,4.5-10,10-10h30
				c5.5,0,10,4.5,10,10V53z"/>
		</g>
	</g>
	<g opacity="0.2">
		
			<image overflow="visible" opacity="0.15" width="57" height="57" xlink:href="D2CB290A.png"  transform="matrix(1 0 0 1 63.5 11.5)">
		</image>
		<g>
			<linearGradient id="SVGID_2_" gradientUnits="userSpaceOnUse" x1="92.0029" y1="62.998" x2="92.0029" y2="13.0005">
				<stop  offset="0" style="stop-color:#000000"/>
				<stop  offset="1" style="stop-color:#FFFFFF"/>
			</linearGradient>
			<path fill="url(#SVGID_2_)" d="M117.003,52.998c0,5.5-4.5,10-10,10h-30c-5.5,0-10-4.5-10-10V23c0-5.5,4.5-10,10-10h30
				c5.5,0,10,4.5,10,10V52.998z"/>
		</g>
	</g>
	<g opacity="0.2">
		
			<image overflow="visible" opacity="0.15" width="57" height="57" xlink:href="D2CB2905.png"  transform="matrix(1 0 0 1 421.5 11.5)">
		</image>
		<g>
			<linearGradient id="SVGID_3_" gradientUnits="userSpaceOnUse" x1="449.6377" y1="63" x2="449.6377" y2="13.0005">
				<stop  offset="0" style="stop-color:#000000"/>
				<stop  offset="1" style="stop-color:#FFFFFF"/>
			</linearGradient>
			<path fill="url(#SVGID_3_)" d="M474.637,53c0,5.5-4.5,10-10,10h-29.998c-5.5,0-10-4.5-10-10V23c0-5.5,4.5-10,10-10h29.998
				c5.5,0,10,4.5,10,10V53z"/>
		</g>
	</g>
</g>
</svg>
