<?xml version="1.0" encoding="utf-8"?>
<!-- Generator: Adobe Illustrator 15.0.0, SVG Export Plug-In . SVG Version: 6.00 Build 0)  -->
<!DOCTYPE svg PUBLIC "-//W3C//DTD SVG 1.1//EN" "http://www.w3.org/Graphics/SVG/1.1/DTD/svg11.dtd">
<svg version="1.1" id="Layer_1" xmlns="http://www.w3.org/2000/svg" xmlns:xlink="http://www.w3.org/1999/xlink" x="0px" y="0px"
	 width="64px" height="42px" viewBox="0 0 64 42" enable-background="new 0 0 64 42" xml:space="preserve">
<g>
	
		<image overflow="visible" opacity="0.15" width="336" height="168" xlink:href="7EAA3692.png"  transform="matrix(1 0 0 1 1299.5 79.5)">
	</image>
	<g>
		<path fill="#4E4273" d="M1620.583,87.129h-299.328c-2.762,0-5,2.238-5,5v29.827l-7.468,5.67l7.468,5.866v97.547
			c0,2.762,2.238,5,5,5h299.328c2.762,0,5-2.238,5-5V131.16V92.129C1625.583,89.367,1623.345,87.129,1620.583,87.129z"/>
	</g>
</g>
<g>
	<g>
		<path fill="#4E4273" d="M62.973,40.157c0,0.756-0.619,1.374-1.375,1.374H2.402c-0.756,0-1.374-0.618-1.374-1.374V8.322
			c0-0.756,0.618-1.374,1.374-1.374h59.196c0.756,0,1.373,0.618,1.373,1.374v31.835H62.973z"/>
	</g>
	<polygon fill="#4E4273" points="36.373,8.326 43.824,0.469 51.275,8.326 	"/>
</g>
</svg>
