<?xml version="1.0" encoding="utf-8"?>
<!-- Generator: Adobe Illustrator 15.0.0, SVG Export Plug-In . SVG Version: 6.00 Build 0)  -->
<!DOCTYPE svg PUBLIC "-//W3C//DTD SVG 1.1//EN" "http://www.w3.org/Graphics/SVG/1.1/DTD/svg11.dtd">
<svg version="1.1" id="Layer_1" xmlns="http://www.w3.org/2000/svg" xmlns:xlink="http://www.w3.org/1999/xlink" x="0px" y="0px"
	 width="24px" height="24px" viewBox="0 0 24 24" enable-background="new 0 0 24 24" xml:space="preserve">
<g>
	<path fill="#6B43B7" d="M11.705,23.068C11.705,23.068,11.705,23.068,11.705,23.068c-5.557,0-9.065-1.275-9.212-1.33l-0.326-0.121
		v-1.398c0-4.037,2.399-7.575,6.063-9.083C6.957,10.042,6.196,8.43,6.196,6.735c0-3.199,2.602-5.803,5.801-5.803
		c3.197,0,5.799,2.604,5.799,5.803c0,1.698-0.76,3.311-2.03,4.402c3.615,1.507,6.067,5.111,6.067,9.082v1.434l-0.369,0.1
		C18.243,22.625,14.96,23.068,11.705,23.068z M3.167,20.908c0.982,0.307,4.115,1.16,8.537,1.16c0,0,0.001,0,0.001,0
		c3.043,0,6.11-0.398,9.128-1.184v-0.666c0-3.859-2.58-7.335-6.274-8.453l-1.086-0.328l0.975-0.58
		c1.471-0.875,2.349-2.417,2.349-4.123c0-2.648-2.153-4.803-4.799-4.803c-2.647,0-4.801,2.154-4.801,4.803
		c0,1.678,0.902,3.258,2.354,4.123l0.974,0.58l-1.085,0.328c-3.751,1.134-6.271,4.531-6.271,8.453V20.908z"/>
</g>
</svg>
