<?xml version="1.0" encoding="utf-8"?>
<!-- Generator: Adobe Illustrator 15.0.0, SVG Export Plug-In . SVG Version: 6.00 Build 0)  -->
<!DOCTYPE svg PUBLIC "-//W3C//DTD SVG 1.1//EN" "http://www.w3.org/Graphics/SVG/1.1/DTD/svg11.dtd">
<svg version="1.1" id="Layer_1" xmlns="http://www.w3.org/2000/svg" xmlns:xlink="http://www.w3.org/1999/xlink" x="0px" y="0px"
	 width="18px" height="18px" viewBox="0 0 18 18" enable-background="new 0 0 18 18" xml:space="preserve">
<path fill="#2A78C2" d="M7.126,13.105L6.42,13.809c-0.614,0.609-1.613,0.609-2.228,0c-0.296-0.289-0.456-0.68-0.456-1.092
	c0-0.415,0.16-0.803,0.456-1.096L6.8,9.032c0.539-0.536,1.558-1.324,2.3-0.591c0.338,0.342,0.886,0.338,1.226-0.003
	c0.336-0.339,0.334-0.888-0.003-1.228C9.062,5.963,7.199,6.195,5.578,7.802l-2.607,2.589C2.347,11.009,2,11.837,2,12.717
	c0,0.879,0.347,1.703,0.971,2.324C3.614,15.684,4.459,16,5.305,16c0.848,0,1.692-0.316,2.338-0.959l0.708-0.705
	C8.69,14,8.692,13.45,8.355,13.111C8.018,12.771,7.467,12.77,7.126,13.105z M15.029,3.06c-1.354-1.345-3.244-1.417-4.496-0.175
	L9.648,3.762c-0.337,0.337-0.34,0.886-0.004,1.225c0.338,0.342,0.89,0.342,1.229,0.007l0.881-0.877
	c0.65-0.645,1.5-0.379,2.057,0.171c0.293,0.294,0.455,0.681,0.455,1.094c0,0.417-0.162,0.804-0.455,1.096l-2.783,2.76
	c-1.271,1.263-1.87,0.67-2.124,0.419C8.564,9.32,8.013,9.32,7.676,9.662C7.339,10,7.339,10.55,7.679,10.887
	c0.585,0.579,1.251,0.866,1.951,0.866c0.856,0,1.759-0.431,2.617-1.282l2.782-2.76C15.654,7.091,16,6.264,16,5.382
	C16,4.504,15.654,3.68,15.029,3.06z"/>
</svg>
