<?xml version="1.0" encoding="utf-8"?>
<!-- Generator: Adobe Illustrator 15.0.0, SVG Export Plug-In . SVG Version: 6.00 Build 0)  -->
<!DOCTYPE svg PUBLIC "-//W3C//DTD SVG 1.1//EN" "http://www.w3.org/Graphics/SVG/1.1/DTD/svg11.dtd">
<svg version="1.1" xmlns="http://www.w3.org/2000/svg" xmlns:xlink="http://www.w3.org/1999/xlink" x="0px" y="0px" width="16px"
	 height="20px" viewBox="0 0 16 20" enable-background="new 0 0 16 20" xml:space="preserve">
<g id="Layer_1" display="none">
	<g display="inline">
		<g>
			<path fill="#4F398F" d="M14.269,6.485l-0.155,0.896c-0.04,0.23-0.133,0.399-0.279,0.507c-0.147,0.108-0.372,0.161-0.675,0.161
				h-1.646l-0.775,3.89h2.135c0.231,0,0.396,0.066,0.496,0.197s0.125,0.36,0.078,0.686l-0.107,0.68h-2.828l-1.002,5.047H8.542
				c-0.104,0-0.199-0.023-0.286-0.072c-0.087-0.047-0.162-0.109-0.221-0.189c-0.06-0.08-0.102-0.176-0.125-0.287
				c-0.024-0.112-0.024-0.234,0-0.369l0.847-4.129H5.811l-0.848,4.235c-0.047,0.295-0.163,0.503-0.346,0.628
				c-0.182,0.122-0.389,0.184-0.621,0.184H3.042l1.015-5.047H2.315c-0.223,0-0.385-0.066-0.484-0.196
				c-0.1-0.132-0.125-0.361-0.078-0.687l0.095-0.68h2.435l0.775-3.89H2.291l0.155-0.882c0.04-0.23,0.133-0.401,0.28-0.515
				c0.147-0.11,0.372-0.167,0.675-0.167h1.885l0.859-4.27C6.192,1.978,6.302,1.79,6.473,1.655c0.17-0.138,0.375-0.203,0.614-0.203
				h0.954L7.04,6.485h2.947l1.002-5.033h0.942c0.23,0,0.412,0.076,0.543,0.226c0.131,0.152,0.178,0.344,0.137,0.573l-0.871,4.234
				H14.269z M9.759,8.049H6.812l-0.775,3.89h2.947L9.759,8.049z"/>
		</g>
	</g>
</g>
<g id="Layer_2" display="none">
	<g display="inline">
		<g>
			<ellipse fill="#4F398F" cx="11.394" cy="7.396" rx="2.004" ry="2.178"/>
			<g>
				<path fill="#4F398F" d="M10.601,15.812V13.06c0-1.798-2.174-3.257-4.855-3.257c-2.538,0-4.625,1.308-4.837,2.977
					c-0.006,0.06-0.009,0.121-0.011,0.185v2.845L10.601,15.812z"/>
			</g>
			<g>
				<path fill="#4F398F" d="M11.301,10.618c-0.423,0-0.824,0.052-1.205,0.133c0.676,0.637,1.077,1.435,1.077,2.309v2.198h3.931
					v-2.236C15.104,11.693,13.399,10.618,11.301,10.618z"/>
			</g>
			<ellipse fill="#4F398F" cx="5.744" cy="6.774" rx="2.379" ry="2.587"/>
		</g>
	</g>
</g>
<g id="Layer_3">
	<g>
		<g>
			<g>
				<path fill="#4F398F" d="M13.783,16.927v-3.28c0-2.144-2.591-3.882-5.787-3.882c-3.025,0-5.513,1.558-5.766,3.547
					c-0.008,0.072-0.012,0.146-0.014,0.221v3.391L13.783,16.927z"/>
			</g>
			<ellipse fill="#4F398F" cx="7.995" cy="6.155" rx="2.836" ry="3.083"/>
		</g>
	</g>
</g>
</svg>
