<?xml version="1.0" encoding="utf-8"?>
<!-- Generator: Adobe Illustrator 15.0.0, SVG Export Plug-In . SVG Version: 6.00 Build 0)  -->
<!DOCTYPE svg PUBLIC "-//W3C//DTD SVG 1.1//EN" "http://www.w3.org/Graphics/SVG/1.1/DTD/svg11.dtd">
<svg version="1.1" id="Layer_1" xmlns="http://www.w3.org/2000/svg" xmlns:xlink="http://www.w3.org/1999/xlink" x="0px" y="0px"
	 width="30px" height="30px" viewBox="0 0 30 30" enable-background="new 0 0 30 30" xml:space="preserve">
<g>
	<circle opacity="0.3" fill="#E2DEF7" cx="15" cy="15" r="14.7"/>
	<g>
		<defs>
			<circle id="SVGID_1_" cx="15" cy="15" r="14.7"/>
		</defs>
		<clipPath id="SVGID_2_">
			<use xlink:href="#SVGID_1_"  overflow="visible"/>
		</clipPath>
		<path opacity="0.5" clip-path="url(#SVGID_2_)" fill="#443163" d="M14.985,4.651c2.479,0,4.367,1.565,5.041,3.048
			c0.674,1.481,0.216,5.149,0.216,5.149c0.728-0.188,0.217,1.431,0.082,2.264c-0.135,0.837-0.434,0.64-0.434,0.64
			c-0.289,2.517-1.15,3.559-1.15,3.559l0.107,2.409c0.216,0.071,0.216,0.216,0.216,0.216l0.179,1.546c0,0,7.947,3.451,8.809,3.812
			c0.862,0.358,1.078,1.725,1.078,1.725L15,32.021l0,0L0.87,29.019c0,0,0.214-1.366,1.078-1.725c0.863-0.36,8.81-3.812,8.81-3.812
			l0.178-1.546c0,0,0-0.145,0.216-0.216l0.108-2.409c0,0-0.863-1.042-1.151-3.559c0,0-0.298,0.198-0.434-0.64
			c-0.134-0.833-0.647-2.453,0.081-2.264c0,0-0.458-3.667,0.217-5.149c0.673-1.483,2.562-3.048,5.041-3.048"/>
	</g>
</g>
</svg>
