<?xml version="1.0" encoding="utf-8"?>
<!-- Generator: Adobe Illustrator 15.0.0, SVG Export Plug-In . SVG Version: 6.00 Build 0)  -->
<!DOCTYPE svg PUBLIC "-//W3C//DTD SVG 1.1//EN" "http://www.w3.org/Graphics/SVG/1.1/DTD/svg11.dtd">
<svg version="1.1" id="Layer_1" xmlns="http://www.w3.org/2000/svg" xmlns:xlink="http://www.w3.org/1999/xlink" x="0px" y="0px"
	 width="66px" height="66px" viewBox="0 0 66 66" enable-background="new 0 0 66 66" xml:space="preserve">
<g>
	
		<path opacity="0.5" fill="none" stroke="#60768B" stroke-width="1.62" stroke-linecap="round" stroke-linejoin="round" stroke-miterlimit="10" d="
		M29.701,8.015c-11.946,0-21.63,8.987-21.63,20.074c0,5.366,2.272,10.235,5.968,13.838c1.869,4.037,0.581,7.586-0.304,9.707
		c0,0,5.13-1.533,8.545-4.684c2.314,0.785,4.813,1.213,7.421,1.213c11.945,0,21.629-8.986,21.629-20.075
		C51.33,17.002,41.646,8.015,29.701,8.015z"/>
	
		<path opacity="0.5" fill="none" stroke="#60768B" stroke-width="1.62" stroke-linecap="round" stroke-linejoin="round" stroke-miterlimit="10" d="
		M54.996,30.375c1.852,2.544,2.932,5.612,2.932,8.913c0,4.26-1.804,8.129-4.738,10.988c-1.484,3.207-0.461,6.025,0.241,7.709
		c0,0-4.073-1.217-6.785-3.719c-1.839,0.623-3.823,0.961-5.893,0.961c-3.96,0-7.607-1.242-10.513-3.332"/>
	<path opacity="0.5" fill="#60768B" d="M36.251,28.738c0,1.351,1.096,2.447,2.448,2.447c1.35,0,2.445-1.097,2.445-2.447
		c0-1.354-1.096-2.447-2.445-2.447C37.347,26.291,36.251,27.383,36.251,28.738z"/>
	<path opacity="0.5" fill="#60768B" d="M26.983,28.738c0,1.351,1.096,2.447,2.448,2.447c1.351,0,2.445-1.097,2.445-2.447
		c0-1.354-1.095-2.447-2.445-2.447C28.079,26.291,26.983,27.383,26.983,28.738z"/>
	<path opacity="0.5" fill="#60768B" d="M17.715,28.738c0,1.351,1.097,2.447,2.449,2.447c1.35,0,2.446-1.097,2.446-2.447
		c0-1.354-1.097-2.447-2.446-2.447C18.812,26.291,17.715,27.383,17.715,28.738z"/>
</g>
</svg>
