<?xml version="1.0" encoding="utf-8"?>
<!-- Generator: Adobe Illustrator 15.0.0, SVG Export Plug-In . SVG Version: 6.00 Build 0)  -->
<!DOCTYPE svg PUBLIC "-//W3C//DTD SVG 1.1//EN" "http://www.w3.org/Graphics/SVG/1.1/DTD/svg11.dtd">
<svg version="1.1" id="Layer_1" xmlns="http://www.w3.org/2000/svg" xmlns:xlink="http://www.w3.org/1999/xlink" x="0px" y="0px"
	 width="142px" height="50px" viewBox="0 0 142 50" enable-background="new 0 0 142 50" xml:space="preserve">
<g>
	<g>
		<path fill="#FFFFFF" d="M46.525,24.81c-2.497-0.808-3.404-2.376-3.404-4.899c0-3.869,1.764-4.532,5.805-4.532
			c1.616,0,3.503,0.099,5.315,0.564l-0.195,2.18c-1.397-0.049-3.355-0.097-5.021-0.097c-2.058,0-2.816,0.121-2.816,1.937
			c0,1.493,0.563,1.834,1.885,2.252l3.259,1.002c2.668,0.858,3.477,2.448,3.477,4.928c0,3.844-1.664,4.725-6.001,4.725
			c-1.027,0-3.038-0.051-5.486-0.539l0.195-2.254c3.209,0.072,4.189,0.1,5.364,0.1c2.204,0,2.817-0.318,2.817-2.059
			c0-1.541-0.562-1.838-1.789-2.227L46.525,24.81z"/>
		<path fill="#FFFFFF" d="M59.948,27.824c0.246,2.178,1.151,2.621,3.208,2.621c1.152,0,2.868-0.123,4.311-0.297l0.269,1.912
			c-1.273,0.612-3.427,0.809-4.947,0.809c-4.359,0-6-1.764-6-6.318c0-4.753,1.738-6.319,5.804-6.319
			c3.896,0,5.461,1.444,5.461,4.161c0,2.158-0.978,3.431-3.208,3.431H59.948z M64.014,25.74c0.956,0,1.077-0.757,1.077-1.396
			c0-1.273-0.538-1.762-2.375-1.762c-2.058,0-2.743,0.635-2.817,3.158H64.014z"/>
		<path fill="#FFFFFF" d="M73.198,22.335c1.715-1.297,3.456-2.104,5.194-2.104c2.131,0,3.306,1.175,3.306,3.329v9.014H78.71v-8.106
			c0-1.346-0.317-1.713-1.272-1.713c-1.199,0-2.303,0.538-3.942,1.468v8.352h-2.989V20.573h2.5L73.198,22.335z"/>
		<path fill="#FFFFFF" d="M95.66,32.574h-2.35l-0.246-1.639c-1.08,1.002-2.694,1.934-4.654,1.934c-3.037,0-4.213-2.303-4.213-6.367
			c0-4.778,1.568-6.27,4.604-6.27c1.422,0,2.817,0.316,3.992,1.053c-0.098-0.784-0.122-1.569-0.122-2.4V15.43h2.988L95.66,32.574
			L95.66,32.574z M92.672,23.146c-1.076-0.271-1.911-0.489-2.986-0.489c-1.766,0-2.427,0.587-2.427,3.819
			c0,3.158,0.661,3.871,2.253,3.871c1.2,0,1.838-0.369,3.16-1.25V23.146z"/>
		<path fill="#FFFFFF" d="M107.833,23.856c2.549,0.22,3.405,1.81,3.405,4.507c0,3.477-1.594,4.408-5.534,4.408
			c-3.087,0-4.704-0.025-6.736-0.197v-16.9c1.812-0.171,3.283-0.196,5.976-0.196c4.263,0,5.779,0.931,5.779,4.409
			c0,2.427-0.832,3.674-2.89,3.871V23.856z M105.041,22.704c2.059,0,2.744-0.488,2.744-2.423c0-1.887-0.736-2.327-2.989-2.327
			h-2.815v4.75H105.041z M105.188,30.297c2.278,0,2.987-0.465,2.987-2.498c0-2.252-0.758-2.842-3.086-2.866h-3.11v5.34
			L105.188,30.297z"/>
		<path fill="#FFFFFF" d="M116.139,15.356c0.586,0,0.855,0.318,0.855,0.856v1.348c0,0.563-0.27,0.857-0.855,0.857h-1.373
			c-0.562,0-0.857-0.294-0.857-0.857v-1.348c0-0.538,0.296-0.856,0.857-0.856H116.139z M113.98,32.574V20.573h2.965v12.001H113.98z"
			/>
		<path fill="#FFFFFF" d="M127.941,23.024h-0.856c-1.147,0-2.253,0.391-3.97,1.076v8.474h-2.984V20.573h2.326l0.268,1.763
			c1.642-1.343,3.383-2.104,4.95-2.104h0.587L127.941,23.024z"/>
		<path fill="#FFFFFF" d="M140.826,32.574h-2.352l-0.246-1.639c-1.076,1.002-2.692,1.934-4.652,1.934
			c-3.038,0-4.212-2.303-4.212-6.367c0-4.778,1.565-6.27,4.603-6.27c1.424,0,2.818,0.316,3.993,1.053
			c-0.099-0.784-0.122-1.569-0.122-2.4V15.43h2.988V32.574L140.826,32.574z M137.838,23.146c-1.077-0.271-1.91-0.489-2.986-0.489
			c-1.765,0-2.426,0.587-2.426,3.819c0,3.158,0.661,3.871,2.251,3.871c1.202,0,1.839-0.369,3.161-1.25V23.146z"/>
	</g>
	<g>
		<g>
			<path fill="#6E5BAA" d="M8.287,45.391c-0.579,0-1.108-0.363-1.316-0.904c-0.006-0.018-0.034-0.1-0.039-0.115
				c-0.422-1.299-0.625-2.579-0.625-3.874c0-1.271,0.193-2.521,0.574-3.726C3.503,33.809,1.56,29.58,1.535,25.098
				c-0.032-5.837,3.129-11.117,8.281-13.889c-0.077-0.561-0.117-1.125-0.117-1.685c0-1.278,0.196-2.541,0.583-3.751
				c0.037-0.19,0.093-0.335,0.174-0.472c0.255-0.427,0.719-0.691,1.212-0.691c0.243,0,0.482,0.063,0.693,0.183
				c0.123,0.069,0.236,0.157,0.335,0.262l5.172,4.258c7.201,0.221,13.445,5.361,14.982,12.332l0.495,0.409
				c0.043,0.036,0.08,0.076,0.111,0.119l1.172,0.963c0.147,0.121,0.233,0.302,0.233,0.493c0,0.19-0.085,0.371-0.232,0.492
				l-1.417,1.166c-0.15,8.488-7.153,15.382-15.752,15.428c-0.001,0-0.003,0-0.005,0c-0.961,0-1.852-0.072-2.721-0.217l-5.542,4.561
				C8.911,45.282,8.602,45.391,8.287,45.391z"/>
			<path fill="#FFFFFF" d="M11.671,5.248c0.137,0,0.266,0.036,0.378,0.1c0.079,0.044,0.15,0.103,0.209,0.171l5.377,4.427
				c7.231,0.118,13.246,5.248,14.64,12.05l0.666,0.55c-0.085-0.07-0.175-0.133-0.267-0.192l1.551,1.275l-1.646,1.354
				c0.014,8.296-6.742,15.048-15.121,15.093c-0.03,0-0.061,0-0.091,0c-0.959,0-1.898-0.09-2.81-0.258L8.79,44.564l-0.024,0.021
				c-0.132,0.104-0.298,0.166-0.479,0.166c-0.329,0-0.61-0.207-0.721-0.496c-0.008-0.021-0.016-0.045-0.022-0.065
				c-0.009-0.029-0.018-0.06-0.028-0.084c-0.369-1.14-0.57-2.353-0.57-3.609c0-1.264,0.201-2.477,0.57-3.613
				c0.035-0.105,0.071-0.209,0.108-0.316c-3.309-2.743-5.425-6.858-5.45-11.472c-0.032-5.905,3.368-11.034,8.345-13.532
				c-0.117-0.663-0.18-1.342-0.18-2.039c0-1.253,0.198-2.46,0.564-3.593c0.001-0.011,0.004-0.024,0.006-0.037
				c0.016-0.097,0.05-0.188,0.098-0.269C11.142,5.399,11.389,5.248,11.671,5.248 M32.941,22.545
				c0.009,0.007,0.017,0.014,0.025,0.021L32.941,22.545 M11.671,3.973c-0.716,0-1.39,0.382-1.758,0.999
				C9.789,5.18,9.706,5.4,9.661,5.628C9.265,6.887,9.064,8.197,9.064,9.524c0,0.443,0.023,0.89,0.07,1.335
				C4,13.796,0.867,19.172,0.899,25.101c0.024,4.528,1.929,8.807,5.257,11.875c-0.323,1.145-0.485,2.325-0.485,3.521
				c0,1.36,0.212,2.708,0.632,4.003c0.007,0.021,0.015,0.043,0.023,0.064c0.011,0.041,0.03,0.099,0.05,0.151
				c0.302,0.783,1.07,1.312,1.911,1.312c0.457,0,0.906-0.155,1.266-0.438c0.019-0.015,0.037-0.029,0.055-0.046l5.313-4.372
				c0.811,0.12,1.631,0.182,2.447,0.182h0.099c8.845-0.049,16.067-7.062,16.378-15.759l1.192-0.979
				c0.294-0.242,0.465-0.604,0.465-0.985s-0.17-0.743-0.465-0.985l-1.093-0.899c-0.047-0.055-0.099-0.107-0.157-0.156l0,0
				c-0.01-0.009-0.021-0.018-0.031-0.027l-0.328-0.271c-1.663-7.073-7.994-12.285-15.317-12.608l-4.978-4.098
				c-0.136-0.138-0.29-0.255-0.458-0.35C12.372,4.064,12.023,3.973,11.671,3.973L11.671,3.973z"/>
		</g>
		<g>
			<path fill="#57D5EA" d="M2.174,25.094C2.129,16.771,8.9,9.988,17.295,9.943c8.396-0.046,15.239,6.665,15.285,14.986
				c0.045,8.319-6.725,15.103-15.121,15.147C9.064,40.123,2.22,33.414,2.174,25.094z"/>
			<g>
				<path fill="#6E5BAA" d="M7.546,15.841c0.004-0.014,0.009-0.027,0.013-0.042C7.555,15.814,7.55,15.828,7.546,15.841z"/>
				<path fill="#6E5BAA" d="M8.803,15.481c-0.016-0.016-0.034-0.028-0.051-0.043L8.803,15.481z"/>
				<path fill="#6E5BAA" d="M29.574,19.8l0.023,0.019C29.589,19.812,29.582,19.806,29.574,19.8z"/>
				<path fill="#FFFFFF" d="M30.246,20.354l-0.649-0.536L29.574,19.8c-0.566-0.463-1.291-0.742-2.079-0.742
					c-0.782,0-1.499,0.273-2.063,0.729l-0.053,0.042l-4.615,3.799l-1.032,0.85l5.592,4.602l1.139,0.936l1.031-0.846l6.731-5.542
					L30.246,20.354z"/>
				<path fill="#6E5BAA" d="M25.379,19.83l0.053-0.042c0.564-0.457,1.281-0.729,2.063-0.729c0.788,0,1.513,0.278,2.079,0.742
					l0.023,0.019l-0.882-0.754l-9.747-8.024l-6.709-5.523c-0.059-0.068-0.13-0.126-0.209-0.171c-0.113-0.064-0.241-0.1-0.378-0.1
					c-0.282,0-0.529,0.152-0.664,0.377c-0.048,0.081-0.083,0.171-0.098,0.269c-0.002,0.013-0.004,0.026-0.006,0.037
					c-0.366,1.133-0.564,2.34-0.564,3.593c0,1.261,0.201,2.475,0.57,3.611c0.323,0.992,0.774,1.925,1.335,2.781
					c0.564,0.86,1.239,1.642,2.006,2.322l0.704,0.58l5.828,4.798L25.379,19.83z"/>
				<path fill="#6E5BAA" d="M25.379,19.83l0.053-0.042C25.415,19.801,25.396,19.817,25.379,19.83z"/>
				<path fill="#6E5BAA" d="M26.464,30.016l-1.139-0.936l-5.592-4.602L8.803,15.48l-0.051-0.043
					c-0.129-0.097-0.29-0.156-0.464-0.156c-0.338,0-0.623,0.217-0.729,0.518c-0.004,0.014-0.009,0.028-0.013,0.042
					c-0.01,0.029-0.019,0.059-0.03,0.089c-0.369,1.137-0.57,2.35-0.57,3.611s0.201,2.476,0.57,3.611
					c0.639,1.963,1.786,3.702,3.284,5.053c0.265,0.238,0.541,0.467,0.828,0.682l1.375,1.129l0.183,0.152l3.313,2.727l-0.003,0.004
					c-1.254-0.991-2.715-1.729-4.308-2.141c-0.021-0.006-0.043-0.012-0.064-0.016l-0.503,0.412
					c-0.281,0.213-0.553,0.438-0.813,0.672c-1.501,1.352-2.65,3.09-3.291,5.057c-0.369,1.137-0.57,2.35-0.57,3.613
					c0,1.258,0.201,2.471,0.57,3.609c0.01,0.024,0.019,0.055,0.028,0.084c0.006,0.021,0.014,0.045,0.022,0.065
					c0.111,0.289,0.392,0.496,0.721,0.496c0.181,0,0.347-0.062,0.479-0.166l0.024-0.021l8.947-7.363l0,0l7.588-6.246l0,0
					L26.464,30.016z"/>
			</g>
			<path fill="#6E5BAA" d="M34.226,23.628l-1.944-1.599c0.19,0.937,0.292,1.907,0.298,2.899c0,0.02,0,0.036,0,0.054L34.226,23.628z"
				/>
		</g>
	</g>
</g>
</svg>
