<?xml version="1.0" encoding="utf-8"?>
<!-- Generator: Adobe Illustrator 15.0.0, SVG Export Plug-In . SVG Version: 6.00 Build 0)  -->
<!DOCTYPE svg PUBLIC "-//W3C//DTD SVG 1.1//EN" "http://www.w3.org/Graphics/SVG/1.1/DTD/svg11.dtd">
<svg version="1.1" id="Layer_1" xmlns="http://www.w3.org/2000/svg" xmlns:xlink="http://www.w3.org/1999/xlink" x="0px" y="0px"
	 width="800px" height="206px" viewBox="0 197 800 206" enable-background="new 0 197 800 206" xml:space="preserve">
<g>
	<g>
		<path fill="#FFFFFF" d="M262.335,303.948c-14.114-4.563-19.243-13.43-19.243-27.689c0-21.864,9.959-25.606,32.803-25.606
			c9.13,0,19.785,0.564,30.035,3.19l-1.104,12.313c-7.889-0.263-18.96-0.542-28.378-0.542c-11.617,0-15.918,0.692-15.918,10.942
			c0,8.426,3.188,10.362,10.668,12.724l18.405,5.672c15.085,4.848,19.636,13.834,19.636,27.838c0,21.719-9.397,26.695-33.903,26.695
			c-5.805,0-17.155-0.279-30.998-3.047l1.101-12.738c18.134,0.422,23.672,0.574,30.314,0.574c12.472,0,15.918-1.815,15.918-11.637
			c0-8.727-3.18-10.381-10.097-12.598L262.335,303.948z"/>
		<path fill="#FFFFFF" d="M338.179,320.979c1.396,12.313,6.517,14.806,18.131,14.806c6.509,0,16.2-0.691,24.359-1.662l1.529,10.788
			c-7.196,3.479-19.38,4.575-27.948,4.575c-24.647,0-33.927-9.968-33.927-35.703c0-26.864,9.834-35.711,32.811-35.711
			c22.01,0,30.869,8.167,30.869,23.512c0,12.199-5.546,19.396-18.139,19.396H338.179z M361.159,309.211
			c5.4,0,6.093-4.296,6.093-7.888c0-7.211-3.038-9.96-13.423-9.96c-11.63,0-15.501,3.589-15.922,17.848H361.159z"/>
		<path fill="#FFFFFF" d="M413.063,289.966c9.685-7.338,19.526-11.895,29.345-11.895c12.038,0,18.692,6.643,18.692,18.819v50.933
			h-16.893v-45.819c0-7.602-1.8-9.668-7.196-9.668c-6.771,0-13.01,3.029-22.273,8.288v47.199h-16.893v-67.82h14.117L413.063,289.966
			z"/>
		<path fill="#FFFFFF" d="M539.986,347.822h-13.28l-1.372-9.259c-6.096,5.658-15.233,10.922-26.317,10.922
			c-17.147,0-23.794-13.01-23.794-35.979c0-27.004,8.851-35.436,26.011-35.436c8.037,0,15.926,1.794,22.576,5.949
			c-0.566-4.432-0.691-8.857-0.691-13.56v-19.521h16.868V347.822z M523.118,294.535c-6.101-1.521-10.801-2.763-16.897-2.763
			c-9.963,0-13.701,3.318-13.701,21.598c0,17.843,3.738,21.863,12.727,21.863c6.788,0,10.38-2.083,17.872-7.063V294.535z"/>
		<path fill="#FFFFFF" d="M611.4,298.548c14.401,1.252,19.239,10.238,19.239,25.477c0,19.664-8.997,24.902-31.278,24.902
			c-17.45,0-26.572-0.125-38.073-1.104v-95.503c10.251-0.981,18.56-1.103,33.777-1.103c24.094,0,32.67,5.257,32.67,24.913
			c0,13.699-4.692,20.76-16.335,21.872V298.548z M595.624,292.047c11.63,0,15.501-2.767,15.501-13.705
			c0-10.651-4.154-13.139-16.876-13.139h-15.938v26.844H595.624z M596.457,334.95c12.872,0,16.889-2.621,16.889-14.117
			c0-12.734-4.3-16.052-17.446-16.186h-17.589v30.17L596.457,334.95z"/>
		<path fill="#FFFFFF" d="M658.333,250.519c3.309,0,4.838,1.8,4.838,4.836v7.627c0,3.173-1.529,4.834-4.838,4.834h-7.759
			c-3.188,0-4.846-1.661-4.846-4.834v-7.627c0-3.036,1.658-4.836,4.846-4.836H658.333z M646.145,347.822v-67.82H662.9v67.82H646.145
			z"/>
		<path fill="#FFFFFF" d="M725.038,293.851h-4.83c-6.521,0-12.758,2.213-22.435,6.087v47.885h-16.889v-67.82h13.151l1.524,9.963
			c9.264-7.599,19.105-11.895,27.961-11.895h3.315L725.038,293.851z"/>
		<path fill="#FFFFFF" d="M796.002,347.822h-13.293l-1.392-9.259c-6.084,5.658-15.227,10.922-26.294,10.922
			c-17.16,0-23.81-13.01-23.81-35.979c0-27.004,8.851-35.436,26.026-35.436c8.025,0,15.914,1.794,22.564,5.949
			c-0.566-4.432-0.696-8.857-0.696-13.56v-19.521h16.894V347.822z M779.108,294.535c-6.092-1.521-10.801-2.763-16.876-2.763
			c-9.976,0-13.714,3.318-13.714,21.598c0,17.843,3.738,21.863,12.734,21.863c6.771,0,10.372-2.083,17.855-7.063V294.535z"/>
	</g>
	<g>
		<path fill="#FFFFFF" d="M205.751,300.53c0,56.014-45.837,101.846-101.847,101.846h-1.056
			c-56.014,0-101.851-45.832-101.851-101.846v-1.057c0-56.016,45.837-101.85,101.851-101.85h1.056
			c56.01,0,101.847,45.834,101.847,101.85V300.53z"/>
		<g>
			<path fill="#75DAEB" d="M39.036,300.351c-0.194-35.669,28.567-64.726,64.242-64.933c35.654-0.192,64.728,28.572,64.917,64.238
				c0.187,35.663-28.555,64.735-64.222,64.921C68.299,364.78,39.227,336.022,39.036,300.351z"/>
			<path fill="#FFFFFF" d="M138.585,280.484c-2.371,0.944-4.543,2.251-6.477,3.853l-0.017-0.028l-17.184,14.138l28.397,23.398
				l24.206-19.932l4.397-3.612l4.26-3.499l-9.373-7.719l-3.18-2.621l-0.348-0.277c-4.223-3.422-9.623-5.491-15.493-5.491
				C144.515,278.694,141.412,279.337,138.585,280.484"/>
			<g>
				<path fill="#6E5BAA" d="M90.414,224.213c-0.963-0.72-2.151-1.133-3.446-1.133c-2.225,0-4.166,1.248-5.142,3.087
					c-0.093,0.208-0.206,0.413-0.295,0.631c-1.469,3.483-2.46,7.233-2.893,11.141c-0.166,1.46-0.259,2.925-0.259,4.434
					c0,1.191,0.073,2.366,0.17,3.525c0.931,10.702,6.088,20.196,13.807,26.793l26.921,22.164l12.814-10.546l0.017,0.028
					c1.934-1.602,4.105-2.909,6.477-3.853c2.827-1.147,5.93-1.79,9.19-1.79c5.87,0,11.271,2.069,15.493,5.491L90.414,224.213z"/>
				<path fill="#6E5BAA" d="M71.191,262.48c-0.093-0.089-0.198-0.178-0.299-0.25c-0.979-0.756-2.217-1.224-3.552-1.224
					c-2.205,0-4.135,1.25-5.113,3.06c-0.105,0.227-0.211,0.449-0.312,0.696c-2.047,4.795-3.184,10.07-3.184,15.623
					c0,11.711,5.04,22.23,13.07,29.538l28.539,23.494c-3.722-3.033-8.026-5.416-12.706-6.949l-0.013,0.028
					c0.117,0.032,0.227,0.085,0.344,0.122c-0.635-0.227-1.307-0.377-2.026-0.377c-1.715,0-3.261,0.761-4.328,1.949
					c-0.19,0.227-0.368,0.441-0.534,0.688c-5.259,7.12-9.086,15.376-11.06,24.315c-1.036,4.636-1.578,9.441-1.554,14.385
					c0,0.967,0.032,1.918,0.081,2.881c-0.021,0.214-0.032,0.412-0.032,0.631c0,0.502,0.068,0.967,0.186,1.424
					c0.623,2.523,2.921,4.417,5.644,4.417c1.201,0,2.322-0.376,3.248-0.999l65.715-54.088L71.191,262.48z"/>
			</g>
			<path fill="#6E5BAA" d="M166.909,287.185c0.829,4.037,1.271,8.206,1.286,12.472c0,0.574-0.016,1.149-0.036,1.731l3.75-3.087
				l4.26-3.499L166.909,287.185z"/>
		</g>
	</g>
</g>
</svg>
