<?xml version="1.0" encoding="utf-8"?>
<!-- Generator: Adobe Illustrator 15.0.0, SVG Export Plug-In . SVG Version: 6.00 Build 0)  -->
<!DOCTYPE svg PUBLIC "-//W3C//DTD SVG 1.1//EN" "http://www.w3.org/Graphics/SVG/1.1/DTD/svg11.dtd">
<svg version="1.1" id="Layer_1" xmlns="http://www.w3.org/2000/svg" xmlns:xlink="http://www.w3.org/1999/xlink" x="0px" y="0px"
	 width="190px" height="68px" viewBox="0 0 190 68" enable-background="new 0 0 190 68" xml:space="preserve">
<g>
	<g>
		<path fill="#FFFFFF" d="M64.2,40.149c-3.081-0.998-4.2-2.932-4.2-6.042c0-4.772,2.176-5.589,7.16-5.589
			c1.994,0,4.32,0.122,6.556,0.696l-0.243,2.688c-1.722-0.061-4.138-0.119-6.192-0.119c-2.537,0-3.473,0.149-3.473,2.386
			c0,1.842,0.694,2.263,2.325,2.779l4.018,1.237c3.292,1.06,4.289,3.021,4.289,6.074c0,4.742-2.054,5.829-7.401,5.829
			c-1.269,0-3.746-0.062-6.766-0.665l0.241-2.779c3.958,0.089,5.166,0.121,6.615,0.121c2.719,0,3.475-0.393,3.475-2.538
			c0-1.902-0.695-2.265-2.206-2.749L64.2,40.149z"/>
		<path fill="#FFFFFF" d="M80.752,43.866c0.304,2.688,1.42,3.232,3.958,3.232c1.42,0,3.534-0.15,5.316-0.365l0.332,2.356
			c-1.57,0.758-4.228,0.999-6.101,0.999c-5.377,0-7.4-2.177-7.4-7.794c0-5.862,2.143-7.792,7.158-7.792
			c4.805,0,6.737,1.78,6.737,5.133c0,2.659-1.209,4.23-3.958,4.23H80.752z M85.767,41.297c1.179,0,1.33-0.936,1.33-1.721
			c0-1.572-0.664-2.176-2.929-2.176c-2.538,0-3.384,0.785-3.475,3.896H85.767z"/>
		<path fill="#FFFFFF" d="M97.094,37.098c2.117-1.601,4.261-2.595,6.406-2.595c2.627,0,4.077,1.448,4.077,4.106v11.116h-3.686
			v-9.999c0-1.661-0.392-2.113-1.569-2.113c-1.48,0-2.842,0.663-4.866,1.811v10.302h-3.683V34.924h3.082L97.094,37.098z"/>
		<path fill="#FFFFFF" d="M124.797,49.726h-2.9l-0.304-2.023c-1.327,1.238-3.323,2.387-5.739,2.387
			c-3.745,0-5.194-2.842-5.194-7.854c0-5.891,1.932-7.731,5.678-7.731c1.753,0,3.473,0.393,4.924,1.297
			c-0.119-0.966-0.15-1.932-0.15-2.959v-4.261h3.687V49.726z M121.11,38.096c-1.327-0.332-2.357-0.603-3.687-0.603
			c-2.174,0-2.989,0.725-2.989,4.713c0,3.896,0.815,4.771,2.778,4.771c1.479,0,2.265-0.452,3.897-1.539V38.096z"/>
		<path fill="#FFFFFF" d="M139.81,38.971c3.141,0.274,4.199,2.235,4.199,5.561c0,4.29-1.965,5.437-6.828,5.437
			c-3.807,0-5.799-0.029-8.307-0.242V28.882c2.236-0.213,4.048-0.241,7.371-0.241c5.257,0,7.129,1.147,7.129,5.437
			c0,2.993-1.026,4.532-3.564,4.773V38.971z M136.365,37.552c2.54,0,3.384-0.604,3.384-2.99c0-2.326-0.906-2.87-3.686-2.87h-3.475
			v5.86H136.365z M136.547,46.915c2.81,0,3.686-0.573,3.686-3.08c0-2.779-0.937-3.504-3.807-3.533h-3.837v6.584L136.547,46.915z"/>
		<path fill="#FFFFFF" d="M150.051,28.49c0.724,0,1.056,0.392,1.056,1.057v1.662c0,0.694-0.332,1.056-1.056,1.056h-1.692
			c-0.694,0-1.059-0.362-1.059-1.056v-1.662c0-0.665,0.364-1.057,1.059-1.057H150.051z M147.391,49.726V34.924h3.655v14.802H147.391
			z"/>
		<path fill="#FFFFFF" d="M164.61,37.945h-1.059c-1.417,0-2.779,0.483-4.894,1.329v10.451h-3.684V34.924h2.868l0.332,2.174
			c2.023-1.657,4.169-2.595,6.103-2.595h0.726L164.61,37.945z"/>
		<path fill="#FFFFFF" d="M180.499,49.726h-2.9l-0.303-2.023c-1.328,1.238-3.321,2.387-5.738,2.387
			c-3.745,0-5.195-2.842-5.195-7.854c0-5.891,1.932-7.731,5.679-7.731c1.751,0,3.475,0.393,4.925,1.297
			c-0.121-0.966-0.151-1.932-0.151-2.959v-4.261h3.685V49.726z M176.814,38.096c-1.33-0.332-2.356-0.603-3.687-0.603
			c-2.176,0-2.99,0.725-2.99,4.713c0,3.896,0.814,4.771,2.778,4.771c1.481,0,2.267-0.452,3.898-1.539V38.096z"/>
	</g>
	<g>
		<g>
			<path fill="#6E5BAA" d="M17.04,65.529c-0.715,0-1.368-0.449-1.624-1.118c-0.008-0.021-0.043-0.124-0.049-0.146
				c-0.518-1.59-0.768-3.17-0.768-4.772c0-1.563,0.238-3.107,0.707-4.589c-4.167-3.657-6.562-8.875-6.592-14.401
				c-0.04-7.197,3.858-13.708,10.212-17.129c-0.096-0.691-0.144-1.387-0.144-2.076c0-1.58,0.243-3.14,0.723-4.638
				c0.047-0.237,0.114-0.407,0.208-0.568c0.317-0.53,0.889-0.855,1.497-0.855c0.299,0,0.594,0.077,0.853,0.223
				c0.155,0.088,0.294,0.198,0.415,0.326l6.378,5.25c8.881,0.273,16.583,6.612,18.477,15.209l0.641,0.527
				c0.055,0.045,0.102,0.096,0.141,0.151l1.412,1.162c0.181,0.15,0.286,0.373,0.286,0.607c0,0.235-0.105,0.458-0.287,0.607
				l-1.747,1.437c-0.184,10.469-8.821,18.969-19.426,19.025h-0.112c-1.087,0-2.179-0.09-3.251-0.268l-6.834,5.626
				C17.811,65.396,17.429,65.529,17.04,65.529z"/>
			<path fill="#FFFFFF" d="M21.212,16.023c0.17,0,0.329,0.044,0.467,0.122c0.098,0.056,0.185,0.128,0.259,0.212l6.631,5.458
				c8.919,0.146,16.336,6.472,18.055,14.862l0.853,0.702c-0.115-0.095-0.235-0.181-0.36-0.262l1.913,1.575l-2.03,1.67
				c0.018,10.23-8.314,18.558-18.647,18.613c-0.036,0-0.071,0-0.107,0c-1.187,0-2.347-0.109-3.472-0.318l-7.114,5.855l-0.03,0.024
				c-0.162,0.128-0.367,0.205-0.589,0.205c-0.407,0-0.753-0.256-0.89-0.613c-0.011-0.024-0.02-0.054-0.027-0.081
				c-0.012-0.034-0.022-0.068-0.034-0.104c-0.456-1.401-0.703-2.899-0.703-4.453c0-1.556,0.248-3.051,0.703-4.453
				c0.043-0.13,0.088-0.26,0.134-0.388c-4.082-3.388-6.691-8.463-6.722-14.153c-0.04-7.281,4.153-13.607,10.291-16.688
				c-0.144-0.816-0.222-1.654-0.222-2.512c0-1.547,0.245-3.035,0.696-4.431c0.001-0.015,0.004-0.03,0.007-0.046
				c0.02-0.12,0.062-0.23,0.121-0.331C20.56,16.21,20.864,16.023,21.212,16.023 M21.212,14.45c-0.883,0-1.714,0.472-2.168,1.231
				c-0.154,0.264-0.257,0.534-0.311,0.815c-0.489,1.551-0.736,3.166-0.736,4.8c0,0.546,0.029,1.096,0.086,1.645
				C11.751,26.565,7.888,33.196,7.929,40.507c0.03,5.583,2.379,10.862,6.482,14.647c-0.397,1.412-0.598,2.866-0.598,4.338
				c0,1.686,0.263,3.347,0.78,4.939l0.026,0.078c0.02,0.067,0.044,0.137,0.069,0.201c0.376,0.961,1.319,1.604,2.351,1.604
				c0.564,0,1.12-0.192,1.563-0.543c0.008-0.006,0.045-0.036,0.053-0.043l6.564-5.402c1,0.147,2.014,0.223,3.024,0.223l0.116-0.001
				c10.908-0.059,19.814-8.707,20.198-19.433l1.47-1.208c0.363-0.299,0.573-0.744,0.574-1.215c0-0.47-0.21-0.915-0.573-1.214
				l-1.346-1.108c-0.062-0.073-0.131-0.143-0.208-0.205l-0.434-0.357c-2.051-8.722-9.858-15.149-18.889-15.549l-6.139-5.053
				c-0.166-0.168-0.353-0.312-0.557-0.428C22.074,14.562,21.646,14.45,21.212,14.45L21.212,14.45z"/>
		</g>
		<g>
			
				<ellipse transform="matrix(-1 0.0054 -0.0054 -1 56.7183 80.6411)" fill="#57D5EA" cx="28.25" cy="40.397" rx="18.75" ry="18.584"/>
			<g>
				<path fill="#6E5BAA" d="M16.125,29.087c0.005-0.017,0.01-0.033,0.016-0.05C16.136,29.054,16.13,29.07,16.125,29.087z"/>
				<path fill="#6E5BAA" d="M17.676,28.644c-0.021-0.019-0.042-0.036-0.064-0.053L17.676,28.644z"/>
				<path fill="#6E5BAA" d="M43.292,33.97l0.028,0.024C43.311,33.985,43.302,33.979,43.292,33.97z"/>
				<path fill="#FFFFFF" d="M44.122,34.652l-0.802-0.659l-0.028-0.024c-0.699-0.57-1.591-0.914-2.564-0.914
					c-0.963,0-1.848,0.337-2.544,0.899l-0.064,0.053l-5.691,4.686l-1.271,1.046l6.896,5.675l1.405,1.157l1.271-1.046l8.301-6.832
					L44.122,34.652z"/>
				<path fill="#6E5BAA" d="M38.119,34.008l0.064-0.053c0.696-0.562,1.581-0.899,2.544-0.899c0.973,0,1.865,0.344,2.564,0.914
					l0.028,0.024l-1.088-0.93l-12.021-9.896l-8.274-6.811c-0.074-0.084-0.161-0.157-0.259-0.212
					c-0.138-0.078-0.297-0.122-0.467-0.122c-0.348,0-0.652,0.188-0.818,0.466c-0.059,0.101-0.101,0.211-0.121,0.331
					c-0.002,0.016-0.005,0.031-0.007,0.046c-0.451,1.396-0.696,2.884-0.696,4.431c0,1.555,0.248,3.05,0.703,4.453
					c0.398,1.224,0.955,2.374,1.647,3.429c0.697,1.062,1.529,2.024,2.474,2.864l0.868,0.716l7.188,5.917L38.119,34.008z"/>
				<path fill="#6E5BAA" d="M38.119,34.008l0.064-0.053C38.163,33.973,38.141,33.99,38.119,34.008z"/>
				<path fill="#6E5BAA" d="M39.457,46.571l-1.405-1.157l-6.896-5.675l-13.48-11.096l-0.064-0.053
					c-0.159-0.121-0.357-0.192-0.572-0.192c-0.416,0-0.769,0.266-0.898,0.638c-0.006,0.017-0.011,0.033-0.016,0.05
					c-0.013,0.036-0.025,0.074-0.037,0.111c-0.456,1.402-0.703,2.898-0.703,4.453c0,1.554,0.248,3.05,0.703,4.453
					c0.788,2.423,2.201,4.563,4.049,6.23c0.327,0.295,0.668,0.577,1.021,0.841l1.697,1.396l0.224,0.185l4.086,3.364l-0.004,0.003
					c-1.545-1.222-3.348-2.133-5.313-2.638c-0.026-0.009-0.052-0.013-0.079-0.021l-0.62,0.511c-0.346,0.261-0.682,0.537-1.002,0.827
					c-1.853,1.668-3.268,3.811-4.058,6.237c-0.456,1.402-0.703,2.897-0.703,4.453c0,1.554,0.248,3.052,0.703,4.453
					c0.012,0.035,0.022,0.069,0.034,0.104c0.008,0.027,0.017,0.057,0.027,0.081c0.137,0.357,0.483,0.613,0.89,0.613
					c0.223,0,0.427-0.077,0.589-0.205l0.03-0.024l11.035-9.083l0,0l9.358-7.703h-0.001L39.457,46.571z"/>
			</g>
			<path fill="#6E5BAA" d="M49.029,38.693l-2.397-1.975c0.234,1.157,0.362,2.354,0.368,3.577c0,0.022-0.001,0.045-0.001,0.067
				L49.029,38.693z"/>
		</g>
	</g>
</g>
</svg>
